<?xml version="1.0" ?>

<!-- Uploaded to: SVG Repo, www.svgrepo.com, Generator: SVG Repo Mixer Tools -->
<svg fill="#000000" width="800px" height="800px" viewBox="0 0 400 400" id="Mute" version="1.1" xml:space="preserve" xmlns="http://www.w3.org/2000/svg" xmlns:xlink="http://www.w3.org/1999/xlink">

<g id="XMLID_51_">

<rect height="26.7" id="XMLID_52_" width="26.7" x="146.7" y="26.7"/>

<rect height="26.7" id="XMLID_163_" width="26.7" x="120" y="53.3"/>

<rect height="26.7" id="XMLID_164_" width="26.7" x="93.3" y="80"/>

<path d="M93.3,240v-26.7v-26.7V160v-26.7v-26.7H66.7H40H13.3v26.7V160v26.7v26.7V240v26.7v26.7H40h26.7h26.7v-26.7   V240z M66.7,160v26.7v26.7V240v26.7H40V240v-26.7v-26.7V160v-26.7h26.7V160z" id="XMLID_167_"/>

<rect height="26.7" id="XMLID_168_" width="26.7" x="253.3" y="133.3"/>

<rect height="26.7" id="XMLID_169_" width="26.7" x="360" y="133.3"/>

<rect height="26.7" id="XMLID_170_" width="26.7" x="280" y="160"/>

<rect height="26.7" id="XMLID_171_" width="26.7" x="333.3" y="160"/>

<rect height="26.7" id="XMLID_172_" width="26.7" x="93.3" y="293.3"/>

<rect height="26.7" id="XMLID_173_" width="26.7" x="306.7" y="186.7"/>

<rect height="26.7" id="XMLID_174_" width="26.7" x="120" y="320"/>

<rect height="26.7" id="XMLID_175_" width="26.7" x="280" y="213.3"/>

<rect height="26.7" id="XMLID_176_" width="26.7" x="333.3" y="213.3"/>

<rect height="26.7" id="XMLID_177_" width="26.7" x="146.7" y="346.7"/>

<rect height="26.7" id="XMLID_178_" width="26.7" x="253.3" y="240"/>

<rect height="26.7" id="XMLID_179_" width="26.7" x="360" y="240"/>

<polygon id="XMLID_180_" points="173.3,0 173.3,26.7 200,26.7 200,53.3 200,80 200,106.7 200,133.3 200,160 200,186.7 200,213.3    200,240 200,266.7 200,293.3 200,320 200,346.7 200,373.3 173.3,373.3 173.3,400 200,400 226.7,400 226.7,373.3 226.7,346.7    226.7,320 226.7,293.3 226.7,266.7 226.7,240 226.7,213.3 226.7,186.7 226.7,160 226.7,133.3 226.7,106.7 226.7,80 226.7,53.3    226.7,26.7 226.7,0 200,0  "/>

</g>

</svg>